<svg width="412" height="204" viewBox="0 0 412 204" fill="none" xmlns="http://www.w3.org/2000/svg">
<path d="M358.08 49.7098C373.933 49.7098 387.226 55.6545 397.959 67.5438V0H411.582V153.742L396.721 140.118C385.987 151.182 373.107 156.714 358.08 156.714C343.549 156.714 330.999 151.43 320.431 140.862C309.862 130.293 304.578 117.743 304.578 103.212C304.578 88.3502 309.862 75.7178 320.431 65.3146C330.999 54.9114 343.549 49.7098 358.08 49.7098ZM358.08 63.333C346.851 63.333 337.356 67.2136 329.595 74.9747C321.999 82.5707 318.201 91.9831 318.201 103.212C318.201 114.441 321.999 123.936 329.595 131.697C337.356 139.293 346.851 143.091 358.08 143.091C369.144 143.091 378.556 139.21 386.317 131.449C394.079 123.688 397.959 114.276 397.959 103.212C397.959 92.1482 394.079 82.7358 386.317 74.9747C378.556 67.2136 369.144 63.333 358.08 63.333Z" fill="black"/>
<path d="M262.915 83.6749L241.973 50.9668H283.858L262.915 83.6749ZM241.973 153.742L262.915 121.034L283.858 153.742H241.973Z" fill="black"/>
<path d="M203.967 50.6382H217.59V153.742H203.967V50.6382Z" fill="black"/>
<path d="M185.675 52.1864L179.482 64.3235C177.501 63.663 175.106 63.3327 172.299 63.3327C164.703 63.3327 158.428 65.8922 153.474 71.0112C148.686 76.1303 146.291 82.2401 146.291 89.3407V153.741H132.668V52.4341L144.062 61.5988C151.658 53.6726 161.07 49.7095 172.299 49.7095C177.253 49.7095 181.712 50.5351 185.675 52.1864Z" fill="black"/>
<path d="M19.6284 174.277C27.5547 185.01 38.5358 190.377 52.5719 190.377C63.8007 190.377 73.3782 186.496 81.3045 178.735C89.3958 171.139 93.4415 161.397 93.4415 149.507V138.88C82.7081 150.769 69.4151 156.714 53.5626 156.714C39.0312 156.714 26.4813 151.43 15.913 140.861C5.34471 130.293 0.0605469 117.743 0.0605469 103.212C0.0605469 88.3499 5.34471 75.7174 15.913 65.3142C26.4813 54.9111 39.0312 49.7095 53.5626 49.7095C68.5895 49.7095 81.4696 55.2413 92.2031 66.305L107.065 52.4341V149.507C107.065 164.699 101.698 177.579 90.9646 188.148C80.2311 198.716 67.4336 204 52.5719 204C34.7378 204 20.289 196.9 9.22526 182.698L19.6284 174.277ZM53.5626 63.3327C42.3338 63.3327 32.8388 67.2132 25.0777 74.9744C17.4818 82.5703 13.6838 91.9827 13.6838 103.212C13.6838 114.44 17.4818 123.935 25.0777 131.696C32.8388 139.292 42.3338 143.09 53.5626 143.09C64.6264 143.09 74.0388 139.21 81.7999 131.449C89.561 123.688 93.4415 114.275 93.4415 103.212C93.4415 92.1479 89.561 82.7355 81.7999 74.9744C74.0388 67.2132 64.6264 63.3327 53.5626 63.3327Z" fill="black"/>
</svg>
